HIERARCHY
ROOT simHips
{
  OFFSET -167.773 99.6846 75.1885
  CHANNELS 6 Xposition Yposition Zposition Zrotation Xrotation Yrotation
  JOINT simSpine
  {
    OFFSET -0.000355721 21.3001 -0.016921
    CHANNELS 3 Zrotation Xrotation Yrotation
    JOINT simLeftArm
    {
      OFFSET 13.5181 21.3012 0
      CHANNELS 3 Zrotation Xrotation Yrotation
      JOINT simLeftForeArm
      {
        OFFSET 24.5783 0 0
        CHANNELS 3 Zrotation Xrotation Yrotation
        JOINT simLeftHand
        {
          OFFSET 24.5783 0 0
          CHANNELS 3 Zrotation Xrotation Yrotation
          End Site
          {
            OFFSET 7.32568 1.52588e-05 0.0169305
          }
        }
      }
    }
    JOINT simHead
    {
      OFFSET 0 27.4458 -0.00489235
      CHANNELS 3 Zrotation Xrotation Yrotation
      End Site
      {
        OFFSET 0 0 0
      }
    }
    JOINT simRightArm
    {
      OFFSET -13.5174 21.3012 0
      CHANNELS 3 Zrotation Xrotation Yrotation
      JOINT simRightForeArm
      {
        OFFSET -24.5783 0 0
        CHANNELS 3 Zrotation Xrotation Yrotation
        JOINT simRightHand
        {
          OFFSET -24.5783 0 0
          CHANNELS 3 Zrotation Xrotation Yrotation
          End Site
          {
            OFFSET -7.32568 1.52588e-05 0.0169305
          }
        }
      }
    }
  }
  JOINT simRightUpLeg
  {
    OFFSET -8.44614 -9.41038 0.835684
    CHANNELS 3 Zrotation Xrotation Yrotation
    JOINT simRightLeg
    {
      OFFSET 0 -40.9639 0
      CHANNELS 3 Zrotation Xrotation Yrotation
      JOINT simRightFoot
      {
        OFFSET 0 -40.9639 0
        CHANNELS 3 Zrotation Xrotation Yrotation
        End Site
        {
          OFFSET 0.50614 -9.67405 14.6709
        }
      }
    }
  }
  JOINT simLeftUpLeg
  {
    OFFSET 8.44614 -9.41038 0.835684
    CHANNELS 3 Zrotation Xrotation Yrotation
    JOINT simLeftLeg
    {
      OFFSET 0 -40.9639 0
      CHANNELS 3 Zrotation Xrotation Yrotation
      JOINT simLeftFoot
      {
        OFFSET 0 -40.9639 0
        CHANNELS 3 Zrotation Xrotation Yrotation
        End Site
        {
          OFFSET -0.50614 -9.67405 14.6709
        }
      }
    }
  }
}
MOTION
Frames:	14
Frame Time:	0.0333333
-237.027 95.2924 -112.662 -1.39996 1.41404 -177.297 8.65142 18.3532 -12.9162 -39.0098 47.6191 -21.576 40.7958 -18.8566 -54.4347 2.41579 -14.602 -6.69115 4.00819 29.4274 5.47887 45.0784 27.751 9.2908 -14.3963 -2.28777 16.3951 -4.11326 1.56257 0.738038 -11.698 -33.721 -20.7881 12.5189 28.7948 -3.14822 -17.9496 21.0781 40.0601 -13.3927 9.22797 -17.1552 -3.48951 9.4825 0.47046 17.5061 -11.8774 -10.0613 
-237.736 94.5778 -116.424 -1.90503 1.18338 -174.086 8.65234 17.2366 -12.0555 -39.4885 46.543 -21.724 43.4243 -22.1745 -58.7135 1.34845 -18.2177 -8.85917 4.60069 30.8629 3.50006 43.356 25.8848 8.53053 -13.3614 -1.97885 15.2096 -3.86555 3.4818 -0.234292 -9.40388 -31.4763 -26.8278 8.45573 22.3113 -1.67234 -19.613 20.1009 43.6199 -13.5491 11.4942 -19.293 -4.09788 10.5512 0.548576 18.8934 -13.6637 -10.9271 
-238.563 93.8037 -120.612 -2.68857 1.22554 -171.021 8.50713 16.1604 -11.0752 -40.0197 46.0772 -22.1036 45.6723 -25.4072 -62.6289 0.737524 -20.959 -10.6596 4.71154 32.6429 1.76262 43.08 24.8409 6.7193 -12.9818 -1.87147 14.7775 -4.18763 4.28443 -1.25132 -15.2502 -33.2811 -27.8903 14.1538 31.5843 -3.54971 -19.6144 15.3934 38.425 -13.486 12.2408 -20.0816 -6.71006 15.4168 1.03654 21.3426 -15.9553 -12.4122 
-239.73 93.4956 -124.553 -2.19905 2.38411 -168.094 10.8947 17.0101 -10.71 -40.7195 44.8945 -23.4455 47.5005 -28.3719 -66.0598 0.464883 -22.5997 -12.2689 2.97429 33.5971 1.30573 42.6988 23.6288 5.93909 -12.717 -1.79857 14.4747 -5.18487 3.36919 -1.73325 -17.0954 -34.4422 -21.6298 19.097 39.9067 -5.87113 -19.8773 9.70754 27.3084 -11.0627 12.5021 -18.0431 -11.0902 22.2516 2.29974 24.5335 -17.2891 -16.6985 
-240.722 93.6149 -128.081 -1.56489 3.67094 -164.537 13.4782 18.1141 -11.5761 -41.7138 44.2169 -24.6995 48.9011 -30.9039 -68.9023 0.423836 -24.1145 -13.2492 1.74878 34.8344 1.43274 42.8047 23.068 6.78226 -11.9363 -1.59279 13.5803 -5.46231 1.7364 -2.16888 -18.1939 -33.0798 -19.162 22.4764 44.6485 -7.82914 -15.8509 7.50176 21.3075 -6.42907 10.2658 -13.0106 -18.2194 32.464 5.41967 25.9371 -17.3333 -24.5193 
-241.289 93.8615 -131.369 -1.15259 4.25835 -159.964 14.8519 18.2655 -12.8162 -40.4581 44.7821 -27.6066 49.7992 -32.6785 -70.8595 0.971654 -25.5423 -13.3513 3.23655 36.7677 0.0190283 44.0226 23.4561 8.29201 -10.8757 -1.33317 12.3676 -4.489 1.47181 -2.42034 -18.982 -30.0828 -20.3882 24.2497 46.867 -8.87147 -16.2952 3.28292 17.4818 0.320413 0.131041 -12.0682 -33.6949 48.959 15.3418 13.3624 -10.8971 -30.347 
-241.871 94.4657 -134.141 -0.845461 3.61499 -156.916 14.8319 17.9109 -11.6419 -36.8492 45.4126 -32.7764 50.3152 -33.7648 -72.047 2.02865 -25.2737 -13.2038 5.76312 38.0759 -2.57443 45.6883 24.7913 9.72396 -10.4375 -1.2331 11.867 -3.23173 2.4897 -2.25915 -19.5682 -27.7831 -22.4068 24.5034 47.1864 -8.9346 -16.6518 0.657745 15.5611 4.29318 -8.281 -10.427 -43.9097 55.2991 23.44 8.24498 -5.37717 -24.3732 
-242.629 95.2618 -136.614 -1.11445 3.14033 -155.509 13.8795 18.5801 -9.50197 -33.6451 45.195 -37.2312 50.6953 -34.6 -72.956 2.81056 -23.9485 -13.1976 7.2628 38.6178 -4.42493 47.0998 27.7615 11.8245 -10.812 -1.31866 12.2947 -2.92509 3.57332 -1.85416 -19.8162 -25.6662 -22.4641 24.2304 46.8672 -8.6947 -15.9898 -0.852428 14.6058 7.14783 -14.339 -6.46591 -48.2959 57.2887 27.162 7.48611 -2.70933 -14.3288 
-243.612 96.2105 -139.039 -1.90515 3.191 -154.659 12.5964 19.8682 -7.501 -31.4875 44.9755 -40.2374 50.9374 -35.1455 -73.5482 3.58568 -23.3318 -12.9037 7.72952 39.2807 -5.45119 47.8097 31.7125 14.6734 -11.5648 -1.49947 13.1545 -3.39143 4.3514 -1.06796 -20.1136 -22.3181 -22.7211 23.3101 45.7502 -8.01788 -15.5753 -2.29082 14.8602 9.40627 -17.9283 -2.53247 -46.1857 56.3689 25.466 7.52962 -0.797263 -7.12591 
-244.761 97.1234 -141.365 -2.4307 3.12417 -153.904 11.5937 20.7315 -5.83915 -30.1865 44.8952 -41.988 51.0491 -35.4057 -73.8303 4.57028 -23.1799 -12.5753 7.41004 39.9559 -5.78288 47.4043 35.9926 18.2269 -12.6208 -1.77324 14.3613 -2.87059 5.00974 0.254427 -20.279 -19.0709 -23.1488 22.1451 44.2592 -7.19892 -14.3807 -3.29508 15.4225 10.956 -20.2488 -0.139396 -39.831 53.0724 20.3254 8.15575 0.181036 -5.43234 
-246.002 97.8615 -143.635 -2.4121 2.87383 -153.25 10.948 21.1054 -4.38056 -29.6257 44.6497 -42.7537 51.0924 -35.5114 -73.9447 4.80152 -22.977 -12.5131 6.87983 40.4169 -5.72019 45.9718 39.8032 22.3718 -13.9371 -2.14805 15.8685 -2.09809 6.8675 1.97016 -20.0205 -16.2679 -23.8091 20.9864 42.6897 -6.40923 -13.5203 -4.31889 15.9916 12.2101 -21.9676 0.646998 -31.7626 47.4028 14.0914 6.49768 0.664217 -6.66017 
-247.409 98.3465 -145.821 -1.91329 2.77293 -152.758 10.8145 21.2438 -3.16646 -29.4943 44.3791 -42.9322 51.0738 -35.4589 -73.8881 4.82857 -22.6926 -12.3695 6.33244 40.5408 -5.43802 44.1628 43.0849 26.1827 -15.6932 -2.70676 17.8836 -1.44673 8.62646 3.74541 -19.4225 -13.7853 -24.4528 20.0687 41.3819 -5.78945 -12.7322 -5.34292 16.5996 12.9842 -22.4287 -0.214988 -22.7432 38.311 7.86085 1.89697 2.3494 -7.8299 
-249.087 98.4328 -147.88 -1.16204 3.26596 -152.469 11.3015 21.7424 -1.88953 -29.3704 44.0909 -43.455 51.0036 -35.3092 -73.7256 4.34025 -22.9482 -12.6164 6.32191 39.5715 -5.47996 42.605 45.3287 28.9183 -17.6943 -3.42712 20.1873 -1.33308 10.2981 4.86074 -18.7057 -11.3315 -24.7897 19.7262 40.8781 -5.51833 -12.0157 -6.60114 16.9418 13.2335 -21.1437 -2.38277 -14.3464 26.8498 3.30472 -0.57311 3.90661 -8.14671 
-251.094 98.1711 -149.94 0.0648153 3.77419 -152.626 12.2435 21.8563 -0.820335 -30.0363 43.987 -43.2794 51.0516 -35.4144 -73.8397 4.26093 -23.2446 -12.757 5.86095 39.4035 -5.06146 41.1798 47.2866 30.9449 -19.5757 -4.18811 22.3614 -1.93784 10.3141 5.17792 -17.7005 -9.78755 -23.7533 19.843 41.048 -5.51089 -9.80409 -7.69016 16.2695 12.8769 -18.7258 -5.828 -5.88682 13.9707 0.556317 -0.348331 3.67525 -8.71852 
